<?xml version="1.0" standalone="no"?>
<!DOCTYPE svg PUBLIC "-//W3C//DTD SVG 20010904//EN"
 "http://www.w3.org/TR/2001/REC-SVG-20010904/DTD/svg10.dtd">
<svg version="1.0" xmlns="http://www.w3.org/2000/svg"
 width="64.000000pt" height="64.000000pt" viewBox="0 0 64.000000 64.000000"
 preserveAspectRatio="xMidYMid meet">

<g transform="translate(0.000000,64.000000) scale(0.100000,-0.100000)"
fill="#000000" stroke="none">
<path d="M205 400 l-80 -80 80 -80 c81 -81 101 -93 112 -64 4 11 -15 36 -58
80 l-63 64 63 64 c43 44 62 69 58 80 -11 29 -31 17 -112 -64z"/>
<path d="M392 406 c-40 -41 -72 -80 -72 -88 0 -16 140 -158 157 -158 6 0 16 7
23 16 11 13 4 24 -51 80 l-63 64 62 63 c45 45 61 68 56 80 -12 32 -41 17 -112
-57z"/>
</g>
</svg>
