<?xml version="1.0" standalone="no"?>
<!DOCTYPE svg PUBLIC "-//W3C//DTD SVG 20010904//EN"
 "http://www.w3.org/TR/2001/REC-SVG-20010904/DTD/svg10.dtd">
<svg version="1.0" xmlns="http://www.w3.org/2000/svg"
 width="64.000000pt" height="64.000000pt" viewBox="0 0 64.000000 64.000000"
 preserveAspectRatio="xMidYMid meet">

<g transform="translate(0.000000,64.000000) scale(0.100000,-0.100000)"
fill="#000000" stroke="none">
<path d="M136 463 c-5 -12 11 -35 56 -80 l62 -63 -62 -63 c-45 -45 -61 -68
-56 -80 3 -9 13 -17 22 -17 20 0 162 139 162 158 0 21 -140 162 -161 162 -9 0
-20 -8 -23 -17z"/>
<path d="M323 464 c-4 -11 15 -36 58 -80 l63 -64 -63 -64 c-43 -44 -62 -69
-58 -80 11 -29 31 -17 112 64 l80 80 -80 80 c-81 81 -101 93 -112 64z"/>
</g>
</svg>
