<?xml version="1.0" standalone="no"?>
<!DOCTYPE svg PUBLIC "-//W3C//DTD SVG 20010904//EN"
 "http://www.w3.org/TR/2001/REC-SVG-20010904/DTD/svg10.dtd">
<svg version="1.0" xmlns="http://www.w3.org/2000/svg"
 width="853.000000pt" height="1280.000000pt" viewBox="0 0 853.000000 1280.000000"
 preserveAspectRatio="xMidYMid meet">
<metadata>
Created by potrace 1.15, written by Peter Selinger 2001-2017
</metadata>
<g transform="translate(0.000000,1280.000000) scale(0.100000,-0.100000)"
fill="#000000" stroke="none">
<path d="M4267 12761 c-4 -18 -7 -46 -7 -60 0 -15 -5 -32 -10 -37 -8 -8 -8
-19 0 -38 5 -15 10 -39 10 -53 0 -25 -1 -25 -18 -10 -10 10 -24 17 -30 17 -8
0 -10 9 -6 24 3 13 1 27 -5 30 -7 4 -11 -1 -11 -13 0 -28 -18 -26 -75 6 -51
28 -123 36 -148 15 -10 -8 -16 -9 -25 0 -16 16 -42 2 -42 -24 0 -21 0 -21 -28
5 -46 44 -112 33 -112 -19 0 -28 23 -46 52 -42 32 4 33 52 1 56 -13 2 -23 -1
-23 -7 0 -6 6 -8 14 -5 21 8 28 -12 10 -27 -12 -10 -18 -9 -30 3 -13 12 -14
20 -5 37 14 25 38 27 69 5 28 -20 49 -56 30 -53 -30 4 -39 -2 -36 -23 2 -17 9
-22 24 -21 16 2 25 -6 34 -27 7 -17 27 -43 46 -59 31 -28 32 -30 11 -33 -32
-4 -31 -52 1 -56 17 -3 22 2 22 17 0 22 26 27 65 12 16 -7 14 -9 -17 -15 -35
-6 -90 -47 -99 -74 -5 -16 -59 7 -59 26 0 7 4 11 9 7 10 -6 26 13 18 21 -10
10 -57 -9 -57 -22 0 -8 -8 -14 -17 -14 -14 1 -9 9 18 33 75 67 86 119 34 153
-32 21 -68 12 -83 -21 -10 -21 -9 -28 8 -45 11 -11 23 -20 28 -20 18 1 34 19
30 36 -4 23 -38 32 -38 10 0 -9 5 -16 12 -16 6 0 8 -3 5 -6 -4 -4 -13 -1 -22
6 -11 9 -12 17 -4 31 11 22 28 24 53 6 30 -22 23 -65 -16 -103 l-34 -34 1 26
c0 33 -17 41 -39 18 -12 -11 -14 -20 -6 -29 7 -9 2 -32 -20 -81 -27 -65 -29
-67 -30 -34 0 19 -12 53 -25 75 -31 50 -33 85 -5 85 11 0 20 -4 20 -10 0 -5
-8 -10 -17 -10 -12 0 -14 -3 -6 -11 15 -15 33 -3 33 21 0 20 -22 32 -45 24
-18 -7 -30 -48 -19 -65 4 -7 -7 -3 -24 9 -17 13 -45 28 -62 33 -16 6 -30 15
-30 20 0 5 -11 9 -25 9 -22 0 -30 -9 -26 -32 0 -4 -17 -12 -38 -18 -22 -6 -63
-28 -92 -50 -55 -41 -77 -48 -96 -29 -17 17 -39 -27 -22 -47 15 -18 39 -18 67
2 22 15 22 15 10 -13 -7 -15 -19 -33 -27 -39 -8 -7 -11 -16 -6 -24 6 -10 3
-12 -13 -8 -26 7 -38 -7 -23 -26 9 -10 2 -19 -27 -40 -43 -30 -71 -32 -112
-11 -31 16 -43 43 -42 90 2 79 132 89 132 10 0 -25 -24 -55 -44 -55 -17 0 -36
21 -36 39 1 13 2 13 11 -1 15 -26 41 -23 37 5 -4 29 -43 35 -57 8 -14 -26 -4
-50 24 -57 37 -9 59 -1 73 28 40 84 -79 145 -138 71 -11 -14 -20 -39 -20 -54
0 -33 -5 -34 -40 -14 -54 31 -120 7 -120 -44 0 -15 5 -32 12 -39 18 -18 56
-15 67 6 12 23 -4 52 -28 52 -21 0 -36 -26 -21 -35 6 -4 10 1 10 10 0 21 24
14 28 -8 5 -24 -26 -33 -46 -14 -13 13 -13 21 -4 42 9 20 19 25 50 25 42 0 83
-22 64 -34 -16 -10 -15 -43 1 -49 6 -2 17 3 23 11 10 13 17 12 58 -7 48 -24
70 -23 129 2 15 7 27 18 27 25 0 8 8 10 24 6 29 -7 42 9 21 26 -13 11 -14 15
-2 29 8 9 18 30 23 46 8 26 9 21 12 -34 2 -43 -1 -67 -9 -72 -10 -6 -10 -11 1
-24 13 -16 15 -16 26 0 12 16 14 16 36 1 25 -18 93 -21 134 -6 19 8 30 7 41
-1 11 -9 17 -9 26 0 9 10 8 15 -6 26 -17 12 -16 15 16 39 38 29 69 33 87 11
15 -18 6 -45 -15 -45 -18 0 -19 11 -2 29 10 10 8 12 -8 9 -14 -2 -20 -11 -20
-28 0 -34 48 -41 65 -10 21 40 -17 88 -60 77 -12 -3 -20 2 -23 15 -4 15 -11
18 -26 13 -15 -5 -21 -2 -21 10 0 9 -15 30 -32 47 -18 17 -25 28 -16 25 9 -3
22 1 29 9 10 12 9 18 -5 32 -22 22 -51 4 -51 -32 1 -22 -4 -26 -26 -26 -36 0
-71 -43 -67 -83 2 -19 14 -38 31 -51 26 -19 30 -19 55 -5 19 11 27 23 27 43 0
36 -27 56 -52 40 -25 -16 -23 -49 2 -49 13 0 20 6 19 18 -1 9 3 17 8 17 5 0 8
-12 6 -27 -2 -20 -9 -29 -26 -31 -33 -5 -52 15 -52 54 0 65 77 82 120 27 55
-70 -23 -170 -114 -147 -24 6 -25 8 -12 23 11 12 12 21 5 31 -8 11 -12 12 -16
3 -14 -35 -63 10 -63 57 0 49 20 100 39 100 10 0 34 16 54 35 28 28 44 35 74
35 32 0 123 -32 123 -42 0 -2 -12 -4 -27 -3 -23 0 -28 -4 -28 -25 0 -18 6 -26
23 -28 12 -2 22 2 22 8 0 20 39 -9 66 -50 32 -48 47 -109 32 -128 -8 -9 -8
-16 1 -25 9 -9 14 -9 20 2 7 10 13 10 29 2 30 -16 98 -14 133 4 21 11 28 12
27 3 -2 -6 6 -13 17 -15 11 -1 14 0 8 3 -7 3 -13 12 -13 19 0 11 7 10 33 -5
47 -28 96 -33 143 -17 36 13 42 13 50 -1 13 -19 44 -9 44 14 0 9 -9 18 -19 21
-17 4 -19 11 -14 53 5 45 3 51 -25 79 -17 17 -40 31 -52 31 -19 0 -20 2 -10
15 10 12 10 15 -1 15 -9 0 -10 3 -2 11 16 16 65 2 104 -30 l34 -29 -28 5 c-23
5 -28 2 -25 -11 1 -9 8 -16 13 -16 6 1 9 7 7 14 -2 6 4 3 14 -6 15 -15 16 -18
1 -33 -9 -8 -14 -22 -11 -30 7 -18 24 -20 24 -3 0 6 3 9 6 6 3 -4 0 -16 -6
-28 -14 -25 -7 -62 16 -84 14 -15 -177 -16 -2093 -16 -1627 0 -2112 3 -2121
12 -35 35 15 99 53 68 27 -22 13 -72 -15 -55 -8 5 -8 11 0 20 8 9 8 15 0 20
-13 8 -24 -20 -16 -40 12 -32 66 -10 66 27 0 25 -44 52 -75 44 -44 -11 -48
-81 -5 -103 20 -10 862 -12 4237 -10 l4212 2 22 22 c44 44 -8 111 -67 85 -21
-10 -25 -18 -22 -45 3 -37 36 -49 58 -22 11 13 11 19 -4 33 -16 16 -16 15 -14
-8 4 -32 -26 -35 -30 -3 -4 29 30 48 58 33 25 -13 28 -65 4 -74 -9 -3 -960 -6
-2115 -6 l-2099 0 20 20 c22 22 26 60 10 91 -7 13 -7 19 0 19 5 0 10 -5 10
-12 0 -9 3 -9 11 -1 19 19 2 46 -26 41 -14 -3 -25 -1 -25 3 0 5 9 9 21 9 14 0
19 5 16 14 -13 32 101 102 126 77 8 -8 7 -11 -3 -11 -12 -1 -11 -4 3 -14 16
-12 15 -14 -12 -19 -51 -10 -73 -44 -69 -104 2 -44 0 -53 -15 -57 -12 -3 -17
-12 -15 -23 4 -22 38 -31 38 -10 0 13 6 13 48 1 37 -12 57 -12 95 -3 26 6 50
15 53 20 3 5 12 9 21 9 13 0 13 -3 3 -15 -10 -12 -10 -15 4 -15 9 0 16 7 16
16 0 14 2 14 22 0 27 -19 119 -21 136 -4 10 10 15 10 22 -2 7 -12 12 -12 22
-2 8 8 9 15 1 23 -21 21 27 132 74 168 19 16 29 18 34 10 11 -18 39 -3 39 21
0 12 -9 24 -22 29 -19 7 -17 9 21 24 67 27 102 22 142 -19 20 -21 41 -33 51
-31 38 10 53 -126 17 -159 -17 -15 -22 -16 -29 -4 -7 12 -12 12 -22 2 -10 -10
-10 -17 -1 -32 11 -16 9 -19 -17 -25 -46 -10 -102 22 -116 65 -16 48 0 87 42
108 32 15 36 15 62 -5 15 -11 28 -31 30 -45 6 -50 -56 -77 -82 -36 -8 13 -7
21 3 30 10 11 12 9 9 -7 -2 -15 3 -21 20 -23 19 -3 23 0 20 19 -2 12 -11 27
-20 33 -25 15 -63 -23 -53 -53 15 -48 81 -51 111 -6 31 47 -9 115 -67 115 -26
0 -29 2 -20 14 17 20 -3 56 -30 56 -24 0 -35 -25 -19 -45 13 -15 30 -12 30 6
0 6 -4 7 -10 4 -5 -3 -10 -1 -10 4 0 6 7 11 15 11 24 0 18 -21 -16 -56 -20
-21 -32 -45 -36 -73 -5 -39 -16 -51 -27 -32 -4 5 -1 11 6 13 9 3 7 14 -6 42
-17 36 -35 43 -44 18 -2 -7 6 -16 18 -20 18 -7 19 -10 8 -19 -7 -6 -24 -13
-38 -15 -32 -4 -59 -51 -44 -75 15 -25 60 -29 68 -7 8 20 -19 53 -31 40 -5 -5
-2 -11 5 -13 20 -7 14 -23 -9 -23 -16 0 -20 5 -17 28 5 41 47 42 90 3 18 -17
27 -31 21 -31 -16 0 -17 -26 -3 -35 6 -4 17 -2 24 4 10 8 22 8 40 1 37 -14 96
-12 126 3 18 9 30 10 42 3 22 -13 35 -1 19 18 -8 9 -9 33 -5 71 4 34 10 51 15
44 4 -7 5 -17 2 -23 -3 -5 2 -15 13 -23 15 -11 17 -17 6 -33 -17 -28 -15 -33
9 -27 13 3 28 -2 39 -13 41 -41 121 -45 178 -9 19 12 23 11 35 -5 12 -16 14
-16 26 -2 12 14 11 19 -3 35 -15 17 -15 18 9 29 62 29 129 -4 104 -50 -14 -26
-43 -19 -47 11 -3 16 0 22 10 19 7 -3 11 -14 10 -24 -3 -15 -1 -16 8 -7 7 6
10 19 7 27 -9 23 -44 20 -52 -4 -17 -53 61 -68 80 -16 8 25 6 31 -18 52 -34
29 -61 30 -110 5 -37 -19 -38 -19 -32 0 3 10 -1 34 -10 53 -37 78 -155 63
-155 -19 0 -40 29 -68 66 -63 55 6 58 73 3 73 -29 0 -34 -38 -6 -43 10 -2 17
3 17 13 0 9 4 14 10 10 12 -8 2 -32 -16 -39 -28 -11 -54 12 -54 47 0 42 15 57
57 57 69 0 98 -80 49 -137 -20 -23 -32 -28 -71 -28 -33 0 -50 5 -59 18 -7 9
-18 17 -25 17 -7 0 -9 9 -5 25 5 21 3 25 -15 25 -14 0 -21 6 -21 20 0 11 -4
20 -8 20 -5 0 -16 16 -25 35 l-17 36 30 -23 c24 -17 35 -20 48 -12 21 14 25
34 12 54 -9 13 -12 13 -20 -2 -13 -21 -30 -16 -95 33 -27 20 -69 42 -91 48
-30 8 -41 16 -40 29 1 19 -42 31 -53 14 -3 -5 -22 -17 -41 -27 -19 -9 -43 -24
-52 -33 -17 -14 -18 -13 -18 15 0 40 -21 58 -49 43 -12 -6 -21 -17 -21 -26 0
-20 29 -30 43 -14 10 10 8 12 -5 7 -12 -4 -18 -1 -18 8 0 19 29 19 36 0 3 -8
-8 -39 -25 -68 -17 -30 -31 -63 -31 -73 -1 -11 -14 7 -31 39 -24 47 -28 61
-18 73 15 19 -1 38 -27 32 -13 -3 -18 -11 -17 -28 2 -23 0 -22 -32 14 -38 43
-44 75 -19 101 24 24 59 16 59 -14 0 -13 -5 -26 -12 -28 -7 -3 -9 3 -6 16 7
26 -22 29 -31 4 -9 -23 17 -47 42 -39 41 14 36 77 -8 91 -20 6 -59 -9 -72 -29
-17 -25 -7 -67 25 -102 l32 -37 -30 7 c-16 4 -33 13 -37 19 -4 6 -10 9 -13 5
-9 -8 26 -48 37 -42 4 3 8 -1 8 -8 0 -7 -9 -19 -19 -25 -17 -11 -25 -7 -59 27
-23 23 -54 43 -73 47 -28 5 -30 7 -14 14 35 14 65 11 59 -6 -9 -22 24 -31 43
-12 13 13 14 19 3 31 -7 9 -20 16 -28 16 -10 0 -3 12 21 34 20 18 41 46 47 61
6 17 15 25 24 22 8 -3 20 1 26 9 15 17 -5 48 -27 40 -21 -9 -15 13 12 40 17
17 34 24 53 22 23 -3 27 -8 27 -33 0 -23 -4 -30 -20 -30 -11 0 -20 7 -20 15 0
8 8 14 17 14 10 -1 15 2 12 7 -3 5 -14 9 -25 9 -16 0 -20 -6 -17 -27 2 -22 9
-29 30 -31 34 -4 52 25 38 62 -13 35 -70 37 -105 2 -22 -22 -24 -22 -28 -5 -6
22 -39 38 -44 22 -3 -8 -15 -7 -41 4 -40 17 -87 8 -145 -28 -44 -26 -70 -25
-62 2 5 15 4 19 -5 14 -6 -4 -10 -18 -7 -31 3 -18 0 -24 -14 -24 -10 0 -25
-10 -35 -22 -16 -22 -16 -22 -9 22 9 49 9 55 -3 150 -7 60 -8 62 -15 31z
m-346 -172 c-10 -23 -10 -23 -10 7 -1 17 2 34 7 38 11 12 14 -18 3 -45z m170
30 c29 -29 23 -89 -10 -105 -43 -22 -89 14 -76 57 7 20 55 27 55 9 0 -5 -7
-10 -15 -10 -8 0 -15 -7 -15 -15 0 -20 36 -19 44 1 9 24 -12 54 -37 54 -32 0
-47 -18 -47 -56 0 -58 76 -87 115 -44 10 12 24 19 31 16 7 -3 29 0 50 5 29 9
40 8 51 -4 19 -18 28 -134 13 -152 -8 -9 -8 -15 0 -20 5 -3 10 -21 10 -38 l0
-32 -20 44 c-20 43 -29 100 -11 72 6 -10 10 -10 16 -1 4 6 3 16 -3 22 -16 16
-42 1 -42 -24 l-1 -23 -19 24 c-29 35 -36 70 -16 89 15 15 17 15 33 -1 9 -9
13 -20 9 -24 -4 -4 -11 -1 -15 6 -7 10 -10 10 -16 1 -10 -16 10 -34 30 -27 26
11 29 37 8 59 -37 37 -92 -6 -73 -57 5 -13 2 -24 -8 -31 -9 -6 -12 -16 -7 -24
6 -10 9 -9 16 1 6 11 14 8 34 -11 27 -25 90 -138 82 -146 -5 -5 -50 62 -59 87
-4 9 -26 26 -50 38 -46 22 -111 81 -90 81 18 0 15 30 -4 37 -8 3 -23 -2 -32
-11 -16 -16 -15 -20 23 -53 37 -33 38 -34 9 -20 -55 28 -119 117 -84 117 6 0
10 -5 10 -11 0 -5 5 -7 11 -3 7 4 6 11 -4 21 -19 19 -37 9 -37 -20 0 -18 -2
-19 -10 -7 -14 21 -12 92 3 111 33 43 113 53 148 18z m487 5 c31 -21 44 -59
36 -102 -6 -33 -8 -34 -15 -14 -10 25 -37 29 -46 7 -8 -22 6 -33 17 -15 8 12
10 11 10 -6 0 -29 -35 -71 -73 -90 l-32 -15 28 21 c30 24 36 57 11 67 -8 3
-23 -2 -32 -11 -15 -15 -15 -18 -2 -26 13 -8 12 -12 -7 -31 -12 -12 -43 -34
-69 -48 -26 -14 -52 -35 -58 -46 -6 -11 -22 -35 -34 -55 -19 -28 -22 -30 -17
-10 18 61 78 150 102 150 8 0 11 -4 8 -10 -3 -5 -2 -10 4 -10 18 0 24 23 8 31
-11 7 -14 19 -10 43 4 28 1 37 -19 50 -14 9 -32 14 -41 10 -24 -9 -32 -44 -14
-61 17 -18 37 -10 37 15 0 14 -2 15 -10 2 -11 -18 -25 -6 -16 15 11 30 41 13
44 -25 2 -26 -4 -43 -24 -65 -14 -16 -23 -23 -20 -13 6 21 -17 53 -32 44 -7
-4 -12 -15 -11 -24 0 -11 3 -12 6 -4 2 6 9 12 14 12 14 0 11 -32 -7 -65 -9
-16 -20 -41 -24 -55 -8 -23 -8 -22 -9 11 -1 19 5 41 11 47 10 10 10 17 1 31
-14 22 -9 112 8 142 8 15 18 19 42 17 28 -3 32 0 32 20 0 22 30 50 41 39 8 -7
-15 -57 -26 -57 -5 0 -10 -4 -10 -10 0 -5 7 -10 15 -10 8 0 15 4 15 10 0 5 11
-2 25 -15 30 -31 71 -32 102 -3 27 25 30 60 7 82 -30 31 -80 9 -72 -31 4 -20
39 -25 46 -5 2 6 -3 12 -12 12 -9 0 -16 5 -16 11 0 6 10 9 23 7 25 -3 35 -41
17 -64 -16 -19 -65 -18 -84 2 -42 41 4 114 71 114 21 0 49 -7 61 -16z m56 0
c3 -9 6 -25 6 -37 -1 -20 -2 -20 -11 -4 -14 24 -20 57 -9 57 4 0 11 -7 14 -16z
m-467 -65 c-14 -23 -23 -24 -31 -3 -13 34 -8 44 18 33 21 -10 23 -14 13 -30z
m-53 -213 c-3 -8 -17 -16 -31 -18 -35 -4 -54 -35 -31 -51 14 -12 13 -14 -10
-30 -15 -9 -37 -24 -50 -33 -21 -16 -22 -16 -15 1 5 14 3 17 -9 13 -25 -10
-39 32 -21 63 12 20 13 21 8 3 -6 -23 17 -50 35 -39 13 8 13 35 -1 35 -5 0 -7
-4 -4 -10 3 -5 1 -10 -4 -10 -28 0 -1 54 37 74 37 20 103 21 96 2z m438 -26
c16 -17 26 -36 22 -42 -4 -7 -9 -6 -14 2 -4 7 -10 8 -13 3 -10 -16 10 -36 28
-29 12 4 16 14 13 31 -6 30 -2 32 12 5 13 -24 2 -73 -15 -66 -7 2 -17 0 -23
-6 -8 -8 -20 -3 -42 16 -17 14 -37 26 -43 26 -6 0 -3 6 7 13 29 21 16 51 -22
55 -21 2 -32 9 -32 19 0 13 9 15 47 10 37 -4 54 -12 75 -37z m188 -6 c0 -2 -7
-4 -15 -4 -8 0 -15 4 -15 10 0 5 7 7 15 4 8 -4 15 -8 15 -10z m-1190 -4 c0 -5
-7 -7 -15 -4 -8 4 -15 8 -15 10 0 2 7 4 15 4 8 0 15 -4 15 -10z m344 -33 c13
-10 18 -28 19 -70 2 -52 0 -58 -20 -64 -54 -13 -93 20 -78 67 9 27 35 27 28
-1 -5 -17 -2 -20 13 -17 25 4 31 43 8 52 -38 15 -83 -30 -68 -68 3 -8 -3 -16
-17 -19 -16 -4 -20 -11 -16 -26 3 -12 1 -19 -4 -16 -12 8 -22 71 -15 100 8 32
54 64 66 45 4 -7 13 -9 20 -5 10 6 9 11 -5 22 -17 12 -16 13 16 13 19 0 43 -6
53 -13z m829 6 c-7 -2 -13 -10 -13 -16 0 -7 -10 -17 -22 -22 -29 -13 -31 -50
-3 -50 13 0 20 6 19 18 -2 23 13 22 26 -4 9 -16 8 -26 -5 -45 -13 -21 -23 -25
-53 -22 l-37 3 -1 58 c0 66 17 88 71 86 16 0 24 -3 18 -6z m57 -33 c24 -24 28
-106 7 -135 -13 -16 -14 -15 -9 13 3 25 1 32 -12 32 -11 0 -16 9 -16 27 0 14
-7 35 -17 45 -10 12 -12 18 -4 18 7 0 9 5 6 10 -11 18 25 10 45 -10z m-705
-35 c0 -22 -2 -23 -12 -9 -7 9 -17 13 -24 8 -9 -5 -7 -11 7 -22 19 -14 19 -15
0 -8 -12 4 -23 1 -28 -6 -6 -10 -8 -10 -8 1 0 17 39 61 54 61 6 0 11 -11 11
-25z m75 5 c27 -27 25 -37 -7 -43 -24 -4 -26 -4 -10 8 18 13 23 35 8 35 -5 0
-16 -10 -25 -22 l-17 -23 11 23 c6 12 8 27 5 32 -11 18 15 10 35 -10z m285 -5
c0 -22 -2 -23 -12 -9 -6 9 -16 13 -22 9 -16 -10 -13 -23 7 -28 13 -4 11 -5 -5
-6 -27 -1 -30 15 -6 41 23 25 38 22 38 -7z m84 -1 c22 -28 30 -57 10 -37 -6 6
-19 9 -28 6 -13 -4 -13 -3 -2 5 8 6 10 15 6 22 -6 10 -11 9 -22 -5 -12 -18
-13 -17 -11 8 3 34 21 34 47 1z m98 -21 c-3 -10 -5 -4 -5 12 0 17 2 24 5 18 2
-7 2 -21 0 -30z m-677 6 c0 -6 -4 -7 -10 -4 -5 3 -10 11 -10 16 0 6 5 7 10 4
6 -3 10 -11 10 -16z m320 1 c0 -5 -2 -10 -4 -10 -3 0 -8 5 -11 10 -3 6 -1 10
4 10 6 0 11 -4 11 -10z m-288 -40 c-19 -33 -36 -25 -27 12 5 19 12 24 25 21
17 -5 17 -6 2 -33z m631 11 c9 -34 -9 -44 -28 -15 -14 21 -14 28 -4 35 16 10
25 4 32 -20z m-998 0 c3 -5 1 -12 -5 -16 -5 -3 -10 1 -10 9 0 18 6 21 15 7z
m417 -57 c26 -17 77 -31 88 -24 6 4 8 15 5 26 -6 17 -6 18 5 2 6 -10 15 -18
20 -18 15 0 12 28 -2 33 -7 3 -2 6 11 6 17 1 22 -3 17 -15 -3 -9 -6 -17 -6
-20 0 -10 -63 -34 -90 -34 -33 0 -94 22 -103 37 -4 6 1 20 10 33 16 23 16 23
24 3 4 -12 14 -25 21 -29z m558 4 c0 -5 -15 -17 -32 -29 -59 -36 -169 -10
-167 40 0 10 3 8 9 -6 10 -25 26 -30 33 -10 4 7 6 6 6 -4 1 -26 22 -28 68 -8
25 10 44 26 48 40 7 22 8 22 21 4 8 -10 14 -23 14 -27z m-69 14 c-7 -2 -18 1
-23 6 -8 8 -4 9 13 5 13 -4 18 -8 10 -11z m-645 -9 c12 -3 31 0 42 6 32 17 38
-15 6 -35 -43 -28 -139 -1 -111 32 7 7 19 11 27 7 8 -3 25 -8 36 -10z m838 5
c19 8 27 8 35 -2 16 -19 -8 -36 -56 -43 -30 -4 -42 -1 -57 15 -25 28 -13 43
23 29 22 -8 36 -8 55 1z m-417 -40 c-3 -8 -6 -5 -6 6 -1 11 2 17 5 13 3 -3 4
-12 1 -19z"/>
<path d="M491 12572 c0 -24 -6 -53 -12 -64 -8 -15 -8 -27 0 -44 12 -27 6 -31
-15 -9 -20 20 -53 19 -61 -1 -9 -23 12 -40 31 -25 12 10 17 8 30 -11 14 -21
17 -39 15 -105 0 -13 -3 -22 -7 -22 -21 3 -31 -3 -34 -23 -3 -22 -5 -21 -41
14 -45 44 -50 83 -11 100 33 15 59 0 59 -33 0 -19 -5 -24 -24 -24 -13 0 -26 7
-28 15 -4 12 -3 13 5 1 10 -14 42 -9 42 7 0 16 -27 33 -43 26 -23 -8 -27 -29
-11 -53 28 -39 74 -20 74 29 0 35 -17 50 -56 50 -23 0 -38 -7 -48 -22 -23 -33
-20 -53 16 -93 l31 -36 -44 3 c-32 2 -45 8 -47 21 -2 9 2 17 8 17 7 0 9 -7 6
-16 -4 -10 -1 -14 6 -12 20 7 15 32 -6 36 -42 8 -46 -50 -4 -64 18 -5 19 -8 6
-15 -9 -5 -39 -38 -68 -75 -34 -43 -57 -64 -68 -62 -10 2 -16 11 -14 21 4 25
-35 22 -43 -3 -14 -44 46 -67 91 -35 12 8 24 12 27 8 12 -12 36 19 52 68 19
56 45 79 92 79 44 0 88 -42 66 -63 -3 -4 -16 5 -29 18 -45 48 -114 19 -114
-48 0 -65 81 -101 138 -62 20 14 21 14 16 0 -4 -11 0 -15 16 -15 17 0 21 4 17
20 -5 20 -5 20 20 0 36 -28 88 -26 118 5 30 30 32 64 4 99 -31 39 -80 32 -105
-16 -7 -12 -14 -14 -24 -8 -26 16 19 64 63 68 53 5 74 -11 98 -78 12 -33 27
-61 33 -62 6 0 16 -2 21 -2 6 -1 20 -7 32 -14 44 -24 89 -5 81 35 -5 26 -38
30 -38 4 0 -44 -34 -24 -95 54 -22 28 -45 54 -53 58 -10 7 -7 14 14 34 24 22
25 26 11 40 -9 9 -23 13 -32 9 -19 -7 -16 -28 6 -34 11 -3 12 -2 0 6 -10 7
-10 11 -1 17 15 9 24 0 17 -20 -4 -10 -20 -15 -48 -15 l-42 0 20 23 c34 37 42
59 31 86 -12 32 -25 41 -60 41 -18 0 -33 -8 -44 -25 -15 -23 -15 -27 0 -50 25
-39 76 -28 76 17 0 19 -28 38 -47 31 -22 -8 -15 -43 8 -43 16 0 20 4 14 18 -5
14 -4 15 6 5 10 -10 10 -16 2 -24 -17 -17 -48 -6 -51 17 -4 28 22 48 53 40 52
-13 45 -69 -15 -116 -24 -19 -38 -25 -34 -16 8 20 -13 47 -30 40 -19 -7 -13
88 8 120 14 23 20 25 32 15 13 -10 17 -10 24 1 10 17 -5 40 -26 40 -8 0 -24
-10 -36 -22 l-21 -21 7 24 c8 27 8 22 -3 104 -8 56 -8 57 -10 17z m-14 -334
c-3 -8 -6 -5 -6 6 -1 11 2 17 5 13 3 -3 4 -12 1 -19z m34 -5 c-8 -15 -10 -15
-11 -2 0 17 10 32 18 25 2 -3 -1 -13 -7 -23z m-91 -72 c14 -26 3 -51 -23 -51
-20 0 -20 1 -2 13 21 16 12 37 -16 37 -23 0 -27 -41 -4 -60 16 -13 65 -6 65
10 0 6 7 10 16 10 21 0 13 -20 -18 -43 -33 -25 -77 -13 -96 27 -12 23 -11 31
2 52 20 29 61 32 76 5z m218 7 c17 -17 15 -73 -4 -89 -39 -32 -125 -3 -110 37
6 16 8 15 27 -4 33 -37 86 -20 77 25 -5 26 -48 30 -48 4 0 -11 8 -22 18 -25
10 -3 7 -4 -8 -3 -47 4 -33 67 14 67 12 0 27 -5 34 -12z"/>
<path d="M8030 12548 c0 -24 -5 -49 -11 -55 -8 -8 -8 -13 0 -17 6 -4 11 -14
11 -23 0 -14 -2 -14 -19 1 -25 23 -55 17 -59 -12 -3 -22 12 -30 23 -12 9 15
32 1 44 -28 14 -35 10 -114 -6 -108 -15 6 -37 -20 -28 -34 14 -22 -13 -8 -43
23 -51 53 -36 118 24 103 20 -5 25 -12 22 -34 -2 -17 -9 -27 -21 -28 -13 -2
-14 -1 -2 3 18 5 17 44 0 50 -21 7 -48 -23 -41 -45 13 -41 71 -39 82 3 9 37
-12 65 -50 65 -67 0 -87 -65 -37 -119 l29 -31 -43 0 c-24 0 -47 5 -50 10 -9
14 4 32 17 24 6 -4 5 -10 -3 -15 -11 -7 -10 -9 4 -9 11 0 17 8 17 21 0 15 -5
20 -22 17 -31 -4 -36 -43 -8 -58 20 -11 19 -13 -22 -62 -68 -81 -88 -100 -101
-95 -7 2 -11 12 -11 21 3 24 -40 17 -44 -7 -8 -42 43 -61 85 -32 12 8 28 13
36 10 17 -7 31 10 46 57 20 62 47 88 91 88 30 0 43 -6 60 -27 14 -18 17 -30
11 -36 -7 -7 -17 -2 -31 16 -53 67 -145 -5 -106 -81 8 -16 23 -32 31 -36 33
-12 79 -6 101 15 l23 21 -6 -21 c-4 -17 -1 -21 17 -21 18 0 21 4 17 21 l-6 21
23 -21 c22 -21 68 -27 101 -15 23 9 47 61 39 87 -16 55 -74 76 -107 39 -20
-22 -22 -63 -5 -80 19 -19 56 -14 68 9 15 27 6 49 -19 49 -27 0 -34 -15 -15
-34 14 -15 14 -16 -6 -16 -18 0 -21 5 -18 33 3 28 7 32 35 35 27 3 35 -1 44
-22 36 -79 -80 -133 -121 -56 -7 13 -7 20 0 20 5 0 10 7 10 15 0 8 -4 15 -10
15 -18 0 -11 26 13 48 32 30 87 29 114 0 11 -13 26 -41 33 -63 16 -52 29 -67
50 -60 9 3 23 -1 30 -10 28 -34 96 -9 88 32 -4 24 -47 31 -44 7 0 -9 -5 -19
-11 -21 -13 -5 -40 21 -106 100 -37 45 -37 46 -17 57 27 15 24 55 -5 55 -11 0
-21 -8 -23 -17 -2 -12 3 -18 15 -18 15 0 15 2 3 10 -8 5 -11 12 -7 16 10 11
31 -12 23 -25 -4 -6 -27 -11 -51 -11 l-43 0 29 31 c51 54 30 119 -39 119 -31
0 -52 -21 -52 -54 0 -18 27 -46 45 -46 15 0 45 27 45 40 0 16 -31 39 -45 34
-8 -4 -15 -15 -15 -26 0 -16 5 -19 21 -15 16 4 19 3 11 -5 -17 -17 -42 -1 -42
26 0 34 42 46 70 21 28 -25 25 -39 -16 -85 -39 -43 -53 -49 -50 -23 0 9 -8 19
-19 22 -27 8 -33 77 -10 120 17 34 25 37 43 19 9 -9 13 -7 18 6 12 31 -13 43
-46 24 -31 -17 -43 -5 -19 19 8 8 8 13 0 17 -6 4 -11 25 -11 46 0 21 -4 42
-10 45 -6 4 -10 -11 -10 -37z m-3 -320 c-3 -7 -5 -2 -5 12 0 14 2 19 5 13 2
-7 2 -19 0 -25z m36 12 c-3 -11 -7 -20 -9 -20 -2 0 -4 9 -4 20 0 11 4 20 9 20
5 0 7 -9 4 -20z m-95 -97 c3 -29 0 -33 -20 -32 -13 0 -17 3 -10 6 21 8 14 43
-8 43 -26 0 -35 -22 -20 -49 14 -27 56 -28 72 -2 16 26 42 16 27 -10 -15 -30
-57 -42 -91 -28 -33 14 -45 50 -29 85 9 21 17 25 44 22 28 -3 32 -7 35 -35z"/>

</g>
</svg>