<?xml version="1.0" standalone="no"?>
<!DOCTYPE svg PUBLIC "-//W3C//DTD SVG 20010904//EN"
 "http://www.w3.org/TR/2001/REC-SVG-20010904/DTD/svg10.dtd">
<svg version="1.0" xmlns="http://www.w3.org/2000/svg"
 width="853.000000pt" height="1280.000000pt" viewBox="0 0 853.000000 1280.000000"
 preserveAspectRatio="xMidYMid meet">
<metadata>
Created by potrace 1.15, written by Peter Selinger 2001-2017
</metadata>
<g transform="translate(0.000000,1280.000000) scale(0.100000,-0.100000)"
fill="#000000" stroke="none">

<path d="M28 759 c-21 -12 -24 -69 -6 -87 17 -17 64 -15 83 4 30 31 0 86 -39
71 -20 -8 -22 -57 -2 -57 9 0 12 7 9 20 -4 14 0 20 11 20 10 0 16 -9 16 -25 0
-18 -7 -26 -25 -31 -47 -12 -73 36 -39 70 14 15 412 16 4228 16 3450 0 4215
-2 4230 -13 38 -27 -2 -96 -41 -71 -24 15 -23 48 0 52 15 3 18 0 12 -18 -5
-16 -3 -21 6 -18 19 6 17 39 -3 51 -34 22 -66 -41 -36 -71 18 -18 63 -14 81 6
22 24 21 55 -1 75 -17 16 -326 17 -4243 17 -2851 -1 -4230 -4 -4241 -11z"/>

<path d="M4171 733 c-8 -15 -13 -15 -36 -5 -39 18 -96 15 -140 -8 -36 -18 -66
-19 -36 -1 9 6 10 11 2 15 -14 9 -33 -2 -26 -15 8 -13 2 -11 -31 6 -36 19 -91
19 -124 0 -33 -19 -41 -18 -33 3 6 15 5 15 -10 3 -12 -9 -14 -17 -8 -25 14
-16 -2 -77 -33 -130 -28 -48 -51 -62 -72 -45 -11 9 -18 8 -29 -1 -19 -16 -19
-34 1 -51 14 -11 13 -14 -8 -25 -13 -8 -43 -13 -69 -14 -39 0 -50 5 -79 35
-21 22 -40 33 -50 30 -13 -4 -20 5 -28 34 -7 21 -12 49 -12 62 0 30 26 69 46
69 15 0 17 -6 14 -61 -1 -29 5 -41 30 -63 17 -14 40 -26 49 -26 14 0 17 -6 14
-24 -7 -33 28 -53 51 -31 20 20 9 48 -16 42 -15 -4 -12 2 12 29 16 19 30 42
30 50 0 11 6 13 19 9 12 -3 23 0 28 9 4 8 21 16 38 18 20 2 34 12 45 30 14 26
13 29 -6 49 -15 15 -28 19 -43 14 -28 -9 -25 -48 4 -53 20 -3 20 -2 1 12 -17
14 -17 16 -3 22 35 13 50 -22 21 -51 -19 -19 -49 -12 -81 18 -16 14 -20 24
-13 32 10 13 4 45 -9 45 -4 0 -12 -5 -18 -11 -9 -9 -20 -9 -44 0 -47 16 -90
13 -126 -9 -27 -16 -33 -17 -33 -5 0 8 -6 15 -14 15 -19 0 -33 -23 -18 -28 8
-2 12 -28 11 -75 -1 -70 -1 -71 -13 -35 -6 20 -17 43 -23 49 -10 10 -9 16 3
30 19 21 1 37 -22 18 -12 -10 -16 -9 -20 8 -10 38 -128 58 -168 28 -23 -17
-56 -20 -56 -5 0 16 -20 11 -27 -6 -4 -10 1 -22 10 -29 15 -11 12 -14 -24 -31
-37 -16 -44 -16 -68 -3 -37 21 -36 63 2 67 22 3 27 -1 27 -17 0 -13 -6 -21
-16 -21 -10 0 -14 6 -10 15 6 17 -9 21 -20 4 -9 -16 19 -41 38 -34 39 15 26
75 -15 75 -30 0 -47 -18 -47 -50 0 -55 67 -77 130 -45 l30 16 0 -32 c0 -42 47
-89 90 -89 33 0 80 37 80 64 0 27 -23 65 -42 71 -48 16 -90 -28 -60 -65 22
-27 55 -18 50 14 -4 26 -34 28 -31 2 1 -12 -2 -15 -9 -8 -16 16 -1 42 25 42
30 0 47 -18 47 -51 0 -33 -22 -52 -60 -52 -45 0 -70 28 -70 79 0 34 5 47 26
63 36 29 109 29 124 1 6 -11 18 -20 27 -20 12 0 13 -3 3 -15 -14 -17 -4 -39
16 -31 8 3 14 1 14 -4 0 -5 11 -26 25 -46 29 -43 33 -64 7 -41 -37 34 -92 14
-76 -28 7 -17 34 -21 34 -5 0 20 27 9 81 -31 30 -22 73 -45 96 -52 23 -6 39
-15 37 -19 -9 -13 16 -38 37 -38 11 0 19 4 19 10 0 5 20 18 44 28 24 11 47 25
50 31 10 16 26 14 20 -3 -9 -24 15 -58 39 -54 16 2 22 10 22 28 0 26 -25 35
-33 12 -2 -8 2 -10 14 -5 12 4 15 2 12 -8 -3 -8 -11 -14 -19 -14 -24 0 -21 42
5 88 14 24 26 59 26 78 1 31 3 28 30 -35 24 -54 28 -72 18 -83 -9 -11 -8 -17
5 -30 23 -23 51 -9 44 23 l-4 25 24 -23 c56 -52 63 -113 15 -125 -18 -4 -29
-1 -38 12 -14 18 -10 35 6 35 5 0 7 -6 4 -14 -7 -18 8 -27 25 -17 22 14 8 46
-21 49 -35 4 -52 -24 -35 -59 32 -63 132 -14 111 55 -3 11 -27 42 -52 69 -33
33 -41 47 -29 47 9 0 17 -6 17 -14 0 -12 7 -16 45 -25 5 -1 11 2 13 8 2 6 -3
11 -12 11 -23 0 -20 15 6 32 20 14 24 12 58 -24 21 -21 50 -41 68 -44 38 -8
32 -24 -8 -24 -19 0 -30 6 -32 17 -2 12 -14 18 -41 19 -20 2 -37 -1 -37 -7 0
-5 6 -9 14 -9 7 0 16 -9 19 -20 3 -13 14 -20 28 -20 22 0 21 -2 -12 -30 -20
-16 -42 -43 -49 -60 -9 -22 -19 -30 -37 -30 -20 0 -24 -4 -21 -22 2 -17 9 -23
26 -22 28 1 28 -7 -3 -40 -38 -41 -106 -28 -89 18 8 21 44 21 44 0 0 -10 -6
-14 -15 -10 -16 6 -21 -9 -6 -18 17 -11 42 6 39 27 -8 50 -70 46 -76 -5 -7
-61 71 -75 115 -20 21 25 23 26 23 6 0 -28 26 -50 43 -36 7 5 21 6 32 1 39
-15 84 -9 140 21 67 35 79 37 72 10 -3 -14 0 -20 10 -20 11 0 14 7 11 25 -3
14 -1 25 3 25 5 0 18 9 29 20 l20 20 0 -24 c0 -14 -4 -36 -9 -50 -6 -15 -6
-36 -1 -53 5 -15 13 -48 18 -73 l10 -45 1 56 c0 30 6 60 12 66 9 9 9 23 0 57
-16 65 -15 67 22 43 25 -16 32 -28 29 -44 -2 -13 1 -23 7 -23 5 0 8 6 5 14
-11 28 16 26 75 -4 63 -31 108 -38 142 -19 15 8 24 7 36 -2 13 -11 18 -10 29
6 8 10 14 23 14 28 0 5 14 -3 31 -17 39 -33 74 -33 95 -1 27 42 -5 86 -50 69
-24 -9 -18 -59 8 -59 11 0 21 5 23 12 3 7 -3 9 -16 6 -15 -4 -21 -1 -21 11 0
11 9 16 26 16 22 0 25 -4 22 -27 -2 -23 -9 -29 -34 -31 -25 -2 -37 3 -53 24
l-21 27 22 11 c30 15 30 41 1 40 -14 0 -25 7 -29 19 -3 11 -24 40 -46 63 -35
38 -38 44 -20 44 25 0 37 29 19 47 -16 17 -50 6 -43 -13 4 -10 -4 -14 -29 -14
-18 0 -37 4 -40 10 -3 6 4 10 16 10 29 0 86 36 102 64 12 23 12 23 41 5 28
-17 28 -19 10 -25 -21 -8 -44 -29 -44 -39 0 -10 44 6 52 19 4 6 10 8 13 4 3
-3 -5 -23 -20 -43 -30 -45 -32 -78 -5 -105 25 -25 62 -26 83 -2 30 33 15 72
-29 72 -22 0 -39 -24 -28 -41 9 -15 34 -10 34 6 0 8 5 15 11 15 6 0 9 -10 7
-22 -3 -26 -41 -36 -64 -18 -23 20 -16 58 19 97 32 34 34 35 33 12 -1 -17 5
-25 20 -27 24 -3 40 24 25 42 -5 7 2 33 20 71 16 33 29 51 29 40 0 -11 14 -46
31 -78 24 -46 28 -61 19 -73 -12 -14 -30 -10 -30 6 0 5 7 7 15 4 17 -7 21 11
4 22 -6 3 -18 -1 -27 -10 -15 -15 -15 -17 0 -32 29 -30 62 -7 61 42 0 13 86
-32 104 -54 18 -21 67 -7 60 17 -4 15 3 20 33 25 22 3 62 24 98 51 60 45 87
55 94 33 6 -18 28 0 28 23 0 26 -26 35 -61 22 -16 -6 -29 -10 -29 -8 0 12 25
55 32 55 4 0 8 9 8 21 0 15 4 19 16 15 23 -9 37 3 24 20 -20 23 36 63 86 64
53 0 83 -24 91 -72 11 -70 -50 -118 -104 -83 -20 13 -24 23 -21 53 3 32 7 37
32 40 31 4 48 -12 38 -36 -4 -12 -7 -10 -14 7 -9 26 -33 23 -33 -4 0 -26 29
-42 49 -26 34 29 10 81 -38 81 -26 0 -56 -38 -56 -70 0 -56 66 -89 121 -60 25
14 52 67 46 91 -6 23 -7 23 29 4 60 -31 134 -7 134 44 0 40 -51 66 -78 39 -27
-27 1 -73 36 -61 14 5 17 43 2 43 -5 0 -7 -7 -4 -15 4 -9 0 -15 -10 -15 -9 0
-16 8 -16 20 0 14 7 20 24 20 28 0 40 -24 26 -51 -15 -27 -51 -33 -96 -14 -34
14 -37 18 -21 26 19 11 21 18 8 37 -7 12 -12 12 -29 1 -18 -12 -26 -11 -51 4
-16 9 -45 17 -64 17 -46 0 -107 -26 -107 -46 0 -14 -3 -14 -15 -4 -23 19 -44
-3 -25 -25 11 -13 10 -18 -3 -33 -9 -9 -16 -20 -16 -24 -1 -5 -2 -16 -2 -25
-1 -10 -5 9 -10 41 -6 41 -5 63 3 73 8 10 8 17 -1 26 -10 9 -15 8 -25 -5 -11
-15 -14 -15 -27 -2 -23 22 -85 29 -130 14 -35 -12 -42 -12 -49 1 -7 11 -12 11
-22 1 -10 -10 -10 -17 0 -32 11 -18 8 -23 -27 -46 -32 -21 -43 -24 -60 -14
-28 15 -29 60 -1 60 23 0 26 -10 8 -28 -9 -9 -8 -12 5 -12 24 0 33 28 14 47
-20 21 -55 8 -63 -23 -8 -30 19 -64 51 -64 13 0 25 -7 29 -15 3 -8 13 -15 22
-15 12 0 15 6 10 24 -3 14 -2 27 3 30 4 3 11 -13 14 -35 4 -28 16 -52 38 -75
20 -21 29 -38 25 -49 -3 -9 -11 -13 -17 -9 -8 4 -7 9 2 15 18 11 4 23 -16 15
-22 -8 -15 -40 9 -44 26 -5 48 25 36 48 -8 14 -5 16 13 13 51 -10 102 69 77
118 -7 12 -8 19 -2 15 6 -3 12 0 15 6 3 10 9 10 23 2 36 -21 27 -172 -10 -158
-8 3 -29 -10 -50 -30 -30 -30 -42 -36 -78 -36 -45 1 -142 38 -102 39 34 1 48
25 28 46 -12 11 -20 13 -27 6 -6 -6 -17 -11 -23 -11 -35 0 -115 160 -93 186
12 15 3 37 -12 28 -5 -3 -7 -10 -4 -15 8 -13 2 -11 -31 6 -37 19 -87 19 -124
0 -27 -14 -30 -14 -30 0 0 8 -7 15 -15 15 -8 0 -15 -4 -15 -10 0 -5 5 -10 11
-10 5 0 8 -4 5 -9 -3 -5 -23 0 -43 10 -42 21 -109 25 -148 7 -21 -10 -27 -9
-39 7 -7 10 -18 15 -24 11 -18 -11 -14 -37 6 -43 16 -4 18 -12 14 -58 -4 -47
-1 -57 21 -79 15 -15 38 -26 54 -26 25 -1 26 -2 11 -14 -19 -14 -25 -32 -8
-21 6 3 10 1 10 -4 0 -20 -55 -11 -93 14 -37 26 -49 42 -23 32 16 -6 40 16 29
26 -10 11 -25 8 -18 -3 3 -5 1 -10 -5 -10 -16 0 -24 30 -11 43 18 18 13 39 -8
32 -18 -5 -19 -3 -8 24 22 59 -26 116 -68 81 -19 -16 -30 -69 -16 -83 14 -14
15 -30 1 -22 -21 13 -31 -7 -15 -31 8 -13 12 -25 8 -25 -5 -1 -15 -2 -23 -3
-8 0 -15 -8 -15 -16 0 -8 8 -14 18 -14 14 2 15 -1 6 -13 -30 -35 -100 -55
-115 -31 -4 7 -3 8 4 4 16 -9 15 7 0 22 -9 9 -7 12 13 12 59 1 100 83 69 141
-9 16 -7 19 9 19 26 0 36 17 21 35 -16 20 -27 19 -39 -2z m-23 -36 c27 -25 28
-33 1 -40 -17 -5 -18 -3 -8 9 16 19 4 30 -16 14 -13 -11 -14 -10 -10 3 10 23
-11 29 -56 15 -30 -9 -45 -20 -54 -41 l-12 -28 -17 26 c-17 25 -17 27 1 41 49
38 131 38 171 1z m139 -3 c-4 -15 -5 -14 -6 4 -1 15 -5 21 -13 16 -7 -5 -8 -3
-3 5 10 18 28 -2 22 -25z m271 10 c25 -16 27 -31 8 -56 -12 -16 -14 -16 -24 7
-11 23 -68 55 -99 55 -11 0 -14 -7 -10 -27 4 -23 3 -25 -6 -12 -7 9 -19 18
-27 21 -10 4 -4 11 20 22 39 18 101 13 138 -10z m-1017 -13 c38 -38 40 -91 4
-126 -47 -47 -115 -23 -115 41 0 54 55 71 79 26 8 -15 7 -23 -2 -31 -11 -8
-13 -6 -13 12 1 16 -5 22 -19 22 -25 0 -27 -33 -2 -49 36 -23 75 35 47 70 -15
17 -71 19 -90 2 -12 -11 -12 -10 -1 4 15 20 7 38 -17 38 -15 0 -15 2 -2 10 8
5 34 10 58 10 35 0 49 -6 73 -29z m365 14 c50 -21 39 -41 -20 -37 -26 2 -53
-1 -60 -7 -10 -9 -15 -8 -20 5 -8 21 9 41 37 47 12 2 23 5 25 6 1 0 19 -6 38
-14z m834 -10 c22 -14 -9 -35 -36 -25 -15 6 -34 6 -51 -1 -32 -12 -53 2 -34
25 20 24 83 25 121 1z m390 15 c13 -8 12 -10 -2 -10 -11 0 -18 -8 -18 -18 0
-15 -6 -17 -34 -14 -28 3 -37 -1 -51 -21 -21 -33 -6 -67 30 -67 31 0 51 33 30
50 -12 10 -18 10 -30 0 -8 -7 -12 -17 -8 -24 4 -8 3 -8 -6 0 -14 13 -5 40 16
48 24 10 63 -21 63 -49 0 -32 -33 -65 -64 -65 -13 0 -35 9 -50 21 -21 16 -26
29 -26 64 0 36 5 48 31 69 32 27 90 35 119 16z m-330 -93 c0 -55 -19 -87 -52
-87 -11 0 -16 5 -13 10 3 6 2 10 -4 10 -17 0 -23 -20 -11 -35 10 -12 9 -15 -6
-15 -11 1 -32 7 -49 14 -27 11 -29 16 -31 74 -2 53 0 62 17 67 33 11 69 -4 79
-30 11 -29 5 -51 -16 -59 -11 -4 -14 -1 -9 13 7 24 -19 35 -35 15 -10 -11 -10
-17 0 -29 26 -31 80 -6 80 37 0 11 9 27 20 36 19 16 19 19 5 47 l-15 30 20
-24 c14 -16 20 -38 20 -74z m-380 39 c0 -2 -9 -2 -20 1 -11 3 -20 9 -20 15 0
5 9 4 20 -2 11 -6 20 -12 20 -14z m-634 -26 c11 0 14 -5 10 -16 -3 -8 -1 -25
6 -37 18 -32 18 -47 1 -47 -46 0 -71 49 -57 113 6 30 7 31 15 10 5 -13 16 -23
25 -23z m269 30 c3 -6 -1 -7 -9 -4 -18 7 -21 14 -7 14 6 0 13 -4 16 -10z m468
3 c3 -5 -6 -9 -19 -9 -13 -1 -21 2 -18 7 6 11 31 12 37 2z m-624 -12 c19 -12
18 -108 0 -127 -8 -7 -29 -16 -47 -20 -30 -6 -32 -5 -30 17 2 17 11 26 28 29
34 7 42 50 10 50 -17 0 -21 -5 -17 -20 4 -17 2 -18 -14 -9 -26 13 -24 54 3 73
25 18 46 20 67 7z m72 -12 c9 -17 8 -25 -5 -37 -13 -14 -16 -14 -16 -2 0 8 -3
25 -6 38 -8 28 11 29 27 1z m630 -18 c-7 -12 -17 -18 -26 -15 -14 6 -13 15 8
42 16 20 31 -2 18 -27z m-996 20 c3 -5 1 -12 -5 -16 -5 -3 -10 1 -10 9 0 18 6
21 15 7z m429 -42 c-4 -8 21 -31 27 -25 2 2 10 -3 18 -11 12 -13 11 -14 -10
-8 -28 8 -59 41 -59 62 0 11 3 11 14 1 8 -7 12 -16 10 -19z m497 -3 c-7 -13
-24 -29 -38 -35 -31 -14 -40 -14 -26 0 6 6 10 17 9 23 -2 6 -1 8 1 4 7 -11 33
-10 33 2 0 5 -8 14 -17 20 -16 10 -15 10 4 5 12 -3 24 -1 28 5 13 22 18 0 6
-24z m-361 8 c0 -7 -12 -22 -26 -33 -30 -24 -52 -28 -35 -7 6 7 8 22 5 32 -6
17 -5 17 9 -1 8 -11 19 -17 23 -13 4 4 2 13 -4 21 -8 10 -6 13 9 13 10 0 19
-6 19 -12z m447 -21 c-3 -10 -5 -4 -5 12 0 17 2 24 5 18 2 -7 2 -21 0 -30z
m-686 4 c-10 -9 -11 -8 -5 6 3 10 9 15 12 12 3 -3 0 -11 -7 -18z m364 13 c3
-5 1 -10 -4 -10 -6 0 -11 5 -11 10 0 6 2 10 4 10 3 0 8 -4 11 -10z m105 6 c0
-3 -4 -8 -10 -11 -5 -3 -10 -1 -10 4 0 6 5 11 10 11 6 0 10 -2 10 -4z m35 -25
c0 -26 -2 -27 -24 -18 -15 8 -19 13 -10 16 8 2 18 10 22 17 11 19 12 18 12
-15z m-415 -16 c13 -14 30 -25 39 -25 12 0 11 -3 -3 -13 -27 -20 -12 -56 25
-64 48 -9 44 -23 -6 -23 -38 0 -52 5 -76 29 -29 29 -39 61 -18 61 5 0 7 -4 4
-10 -3 -5 -1 -10 4 -10 13 0 14 27 2 35 -15 9 -41 -24 -34 -43 4 -12 3 -14 -5
-7 -22 21 -11 88 14 78 8 -3 14 0 14 6 0 18 15 13 40 -14z m544 13 c-5 -7 0
-9 14 -6 17 5 22 0 27 -22 4 -16 1 -38 -5 -49 -14 -28 -18 -26 -12 5 3 16 -1
29 -9 34 -16 10 -42 -8 -33 -22 4 -6 9 -6 14 2 4 7 10 8 13 3 3 -5 -3 -23 -13
-41 -21 -35 -78 -56 -113 -43 -20 8 -19 10 16 24 41 18 50 48 20 66 -17 10
-17 10 -1 11 9 0 30 11 45 25 30 26 49 33 37 13z m-321 -55 c-19 -47 -71 -120
-89 -127 -8 -3 -13 -2 -11 2 1 4 -2 9 -8 12 -5 3 -11 -3 -13 -12 -2 -10 3 -18
10 -18 10 0 13 -10 10 -35 -7 -57 36 -86 72 -49 20 20 20 29 0 49 -15 15 -18
15 -32 1 -9 -9 -12 -19 -8 -23 4 -4 11 -1 15 6 7 10 10 10 16 1 10 -16 -9 -33
-31 -28 -26 5 -23 59 5 94 18 23 21 24 21 7 0 -28 20 -45 37 -32 18 15 17 32
-2 25 -22 -8 -19 26 5 71 18 34 20 35 20 12 0 -14 -5 -30 -12 -37 -8 -8 -8
-15 0 -24 6 -7 9 -38 7 -68 -4 -71 -2 -66 -21 -85 -12 -12 -19 -13 -30 -4 -7
6 -18 8 -23 5 -5 -4 -12 -2 -16 4 -4 6 -12 7 -24 1 -13 -7 -20 -5 -28 8 -19
31 -62 35 -95 11 -25 -19 -29 -19 -26 -4 2 9 -3 19 -10 21 -8 3 -10 -1 -5 -13
4 -12 3 -15 -5 -10 -7 4 -12 13 -12 21 0 20 48 74 84 92 l31 16 -33 -31 c-34
-32 -35 -62 -1 -62 23 0 37 29 20 39 -15 10 28 50 82 76 23 11 46 29 52 40 12
25 55 85 60 85 2 0 -3 -17 -12 -37z m98 -34 c6 -15 30 -37 57 -53 80 -44 98
-62 83 -80 -17 -20 -6 -36 25 -36 38 0 33 43 -8 69 -18 11 -28 21 -22 21 13 0
72 -43 89 -67 8 -10 14 -29 14 -43 0 -22 -1 -23 -8 -6 -5 14 -10 16 -15 8 -4
-7 -4 -16 -1 -22 11 -18 35 -11 44 12 7 20 9 19 15 -14 13 -70 -26 -119 -95
-120 -35 0 -47 5 -66 26 -27 32 -29 53 -7 84 16 24 44 28 75 12 24 -13 26 -65
3 -74 -25 -10 -37 4 -17 19 14 11 15 16 6 26 -17 17 -45 -7 -41 -35 4 -25 51
-34 74 -15 19 16 18 63 -3 82 -34 30 -67 31 -101 2 -19 -16 -33 -22 -37 -15
-5 8 -11 8 -19 1 -7 -6 -16 -8 -19 -4 -4 3 -13 0 -21 -6 -19 -16 -32 -8 -52
31 -11 21 -12 34 -5 41 7 7 7 16 0 30 -8 14 -8 27 0 44 8 16 8 30 1 43 -5 10
-10 31 -10 47 0 24 4 20 25 -25 29 -62 32 -87 10 -78 -9 3 -15 0 -15 -9 0 -8
9 -15 19 -15 20 0 35 25 25 43 -3 7 6 -1 20 -16 18 -19 26 -39 26 -63 0 -30
-3 -34 -25 -34 -18 0 -25 5 -25 20 0 22 15 27 23 8 3 -8 6 -5 6 5 1 13 -5 18
-21 15 -42 -6 -30 -68 13 -68 30 0 51 30 46 64 -3 20 1 35 11 42 8 6 12 16 8
22 -11 18 -29 14 -22 -3 4 -13 2 -13 -14 -5 -29 15 -101 129 -100 158 1 12 41
-42 51 -69z m-791 -3 c0 -11 -19 -15 -25 -6 -3 5 1 10 9 10 9 0 16 -2 16 -4z
m1190 0 c0 -2 -7 -9 -15 -16 -12 -10 -15 -10 -15 4 0 9 7 16 15 16 8 0 15 -2
15 -4z m-769 -216 c14 0 19 -7 19 -28 0 -15 5 -33 12 -40 30 -30 93 2 71 36
-13 21 -38 22 -38 2 0 -8 6 -14 13 -12 8 1 12 -3 10 -10 -7 -19 -39 -16 -52 5
-22 35 26 77 71 61 24 -8 28 -16 31 -51 3 -35 -1 -44 -20 -57 -69 -44 -158 -6
-158 68 0 19 3 43 7 53 7 16 8 16 11 -4 2 -15 10 -23 23 -23z m194 -31 c5 -14
2 -25 -6 -30 -28 -18 -33 -11 -23 29 8 28 21 28 29 1z m249 -22 c6 -26 5 -27
-16 -15 -13 7 -24 14 -26 15 -2 1 2 11 8 23 13 25 24 18 34 -23z m-485 -45 c1
-7 -3 -10 -9 -7 -5 3 -10 18 -9 33 0 24 1 25 9 7 5 -11 9 -26 9 -33z m707 13
c-4 -14 -11 -25 -16 -25 -5 0 -5 13 2 31 12 35 23 31 14 -6z"/>

</g>
</svg>
