<?xml version="1.0" encoding="UTF-8"?>
<svg preserveAspectRatio="none" version="1.1" viewBox="0 0 1960 10" xmlns="http://www.w3.org/2000/svg">
<g fill="none" mask="url(#a)" stroke="rgba(238, 238, 238, 1)" stroke-width="2">
<path d="m-21.016 10c19.596-1.6 58.796-7.2 98-8 39.196-0.8 58.796 4 98 4 39.196 0 58.796-4 98-4 39.196 0 58.796 4.2 98 4 39.196-0.2 58.796-5.2 98-5 39.196 0.2 58.796 6 98 6 39.196 0 58.796-6.6 98-6 39.196 0.6 58.796 8.4 98 9 39.196 0.6 58.796-5.6 98-6 39.196-0.4 58.796 4.2 98 4 39.196-0.2 58.796-4.6 98-5 39.196-0.4 58.796 3.6 98 3 39.196-0.6 58.796-6.8 98-6 39.196 0.8 58.796 9.2 98 10 39.196 0.8 58.796-5.2 98-6 39.196-0.8 58.796 2.4 98 2 39.196-0.4 58.796-4.8 98-4 39.196 0.8 58.796 8 98 8 39.196 0 58.796-7.8 98-8 39.196-0.2 58.796 6.6 98 7 39.196 0.4 93.796-4.8 98-5 4.2058-0.2-61.584 3.2-76.984 4"/>
<path d="m-147.52 7c19.599-0.6 58.799-3.4 98-3 39.199 0.4 58.799 5.6 98 5 39.199-0.6 58.799-8 98-8 39.199 0 58.799 8.2 98 8 39.199-0.2 58.799-8.6 98-9 39.199-0.4 58.799 6.2 98 7 39.199 0.8 58.799-3.4 98-3 39.199 0.4 58.799 5.6 98 5 39.199-0.6 58.799-7.8 98-8 39.199-0.2 58.799 7 98 7 39.199 0 58.799-6.8 98-7 39.199-0.2 58.799 6 98 6 39.199 0 58.799-6 98-6 39.199 0 58.799 6.2 98 6 39.199-0.2 58.799-7.6 98-7 39.199 0.6 58.799 9.6 98 10 39.199 0.4 58.799-7.4 98-8 39.199-0.6 58.799 4.8 98 5 39.199 0.2 58.799-3.8 98-4 39.199-0.2 58.799 3.2 98 3 39.199-0.2 68.499-4 98-4 29.499 0 39.619 3.2 49.519 4"/>
<path d="m-89.292 6c19.602-1 58.802-5.4 98-5 39.202 0.4 58.802 6.6 98 7 39.202 0.4 58.802-5 98-5 39.202 0 58.802 4.8 98 5 39.202 0.2 58.802-3.8 98-4 39.202-0.2 58.802 3.2 98 3 39.202-0.2 58.802-3.8 98-4 39.202-0.2 58.802 3.2 98 3 39.202-0.2 58.802-4.6 98-4 39.202 0.6 58.802 7 98 7 39.202 0 58.802-6.6 98-7 39.202-0.4 58.802 4.6 98 5 39.202 0.4 58.802-3.4 98-3 39.202 0.4 58.802 5.8 98 5 39.202-0.8 58.802-8.6 98-9 39.202-0.4 58.802 6.6 98 7 39.202 0.4 58.802-4.8 98-5 39.202-0.2 58.802 4 98 4 39.202 0 58.802-4.6 98-4 39.202 0.6 58.802 7.2 98 7 39.202-0.2 80.142-7.8 98-8 17.862-0.2-6.9679 5.6-8.7079 7"/>
<path d="m-108.64 1c19.601 1 58.801 4.8 98 5 39.201 0.2 58.801-4.2 98-4 39.201 0.2 58.801 5.4 98 5 39.201-0.4 58.801-7.2 98-7 39.201 0.2 58.801 7.6 98 8 39.201 0.4 58.801-6.4 98-6 39.201 0.4 58.801 8.2 98 8 39.201-0.2 58.801-8.6 98-9 39.201-0.4 58.801 6.8 98 7 39.201 0.2 58.801-6.4 98-6 39.201 0.4 58.801 7.8 98 8 39.201 0.2 58.801-7 98-7 39.201 0 58.801 7.2 98 7 39.201-0.2 58.801-7.6 98-8 39.201-0.4 58.801 5.6 98 6 39.201 0.4 58.801-4.4 98-4 39.201 0.4 58.801 6 98 6 39.201 0 58.801-5.6 98-6 39.201-0.4 58.801 4.4 98 4 39.201-0.4 58.801-5.8 98-6 39.201-0.2 76.271 5 98 5 21.731 0 8.5106-4 10.641-5"/>
<path d="m-149.6 9c19.6-1.2 58.8-6.2 98-6 39.2 0.2 58.8 7.2 98 7 39.2-0.2 58.8-7.8 98-8 39.2-0.2 58.8 6.6 98 7 39.2 0.4 58.8-5 98-5 39.2 0 58.8 5.2 98 5 39.2-0.2 58.8-6.2 98-6 39.2 0.2 58.8 7.6 98 7 39.2-0.6 58.8-9.6 98-10 39.2-0.4 58.8 7.6 98 8 39.2 0.4 58.8-6 98-6 39.2 0 58.8 6 98 6 39.2 0 58.8-5.6 98-6 39.2-0.4 58.8 3.8 98 4 39.2 0.2 58.8-3.4 98-3 39.2 0.4 58.8 4.8 98 5 39.2 0.2 58.8-4.2 98-4 39.2 0.2 58.8 5.2 98 5 39.2-0.2 58.8-6.2 98-6 39.2 0.2 58.8 7 98 7 39.2 0 68.08-6.8 98-7 29.92-0.2 41.28 4.8 51.6 6"/>
</g>
<defs>
<mask id="a">
<rect width="1960" height="10" fill="#fff"></rect>
</mask>
</defs>
</svg>